<?xml version="1.0" encoding="UTF-8"?>
<svg xmlns="http://www.w3.org/2000/svg" xmlns:xlink="http://www.w3.org/1999/xlink" width="40px" height="40px" viewBox="0 0 40 40" version="1.1">
<defs>
<clipPath id="clip1">
  <path d="M 20 0 C 8.953125 0 0 8.953125 0 20 C 0 31.046875 8.953125 40 20 40 C 31.046875 40 40 31.046875 40 20 C 40 8.953125 31.046875 0 20 0 Z M 20 0 "/>
</clipPath>
<clipPath id="clip2">
  <path d="M 20 0 C 8.953125 0 0 8.953125 0 20 C 0 31.046875 8.953125 40 20 40 C 31.046875 40 40 31.046875 40 20 C 40 8.953125 31.046875 0 20 0 Z M 20 0 "/>
</clipPath>
</defs>
<g id="surface1">
<g clip-path="url(#clip1)" clip-rule="nonzero">
<g clip-path="url(#clip2)" clip-rule="nonzero">
<rect x="0" y="0" width="40" height="40" style="fill:rgb(0%,29.019609%,67.843139%);fill-opacity:1;stroke:none;"/>
</g>
</g>
<path style=" stroke:none;fill-rule:nonzero;fill:rgb(100%,87.058824%,34.901962%);fill-opacity:1;" d="M 13.679688 7.734375 C 14.792969 7.734375 15.738281 7.847656 16.515625 8.078125 C 17.292969 8.308594 18.007812 8.664062 18.660156 9.148438 C 18.816406 9.261719 18.964844 9.425781 19.109375 9.640625 C 19.253906 9.855469 19.328125 10.125 19.328125 10.441406 C 19.328125 10.886719 19.175781 11.261719 18.871094 11.566406 C 18.5625 11.875 18.1875 12.027344 17.746094 12.027344 C 17.507812 12.027344 17.3125 11.992188 17.160156 11.921875 C 17.007812 11.851562 16.875 11.777344 16.765625 11.691406 C 16.320312 11.375 15.855469 11.128906 15.367188 10.953125 C 14.882812 10.78125 14.285156 10.691406 13.574219 10.691406 C 12.992188 10.691406 12.449219 10.8125 11.941406 11.058594 C 11.433594 11.300781 10.988281 11.628906 10.605469 12.039062 C 10.222656 12.449219 9.925781 12.925781 9.710938 13.476562 C 9.496094 14.023438 9.386719 14.609375 9.386719 15.234375 L 9.386719 15.277344 C 9.386719 15.945312 9.496094 16.558594 9.710938 17.121094 C 9.925781 17.683594 10.230469 18.175781 10.625 18.59375 C 11.023438 19.007812 11.492188 19.332031 12.035156 19.5625 C 12.574219 19.789062 13.167969 19.90625 13.804688 19.90625 C 15.015625 19.90625 16.023438 19.613281 16.828125 19.027344 L 16.828125 16.945312 L 14.660156 16.945312 C 14.269531 16.945312 13.941406 16.8125 13.667969 16.550781 C 13.398438 16.285156 13.261719 15.957031 13.261719 15.570312 C 13.261719 15.179688 13.398438 14.851562 13.667969 14.578125 C 13.941406 14.308594 14.269531 14.171875 14.660156 14.171875 L 18.328125 14.171875 C 18.773438 14.171875 19.152344 14.328125 19.464844 14.640625 C 19.777344 14.953125 19.933594 15.332031 19.933594 15.777344 L 19.933594 19.320312 C 19.933594 20.222656 19.558594 20.90625 18.808594 21.363281 C 18.210938 21.726562 17.484375 22.058594 16.628906 22.363281 C 15.773438 22.667969 14.796875 22.820312 13.703125 22.820312 C 12.5625 22.820312 11.523438 22.632812 10.585938 22.257812 C 9.648438 21.882812 8.839844 21.363281 8.167969 20.695312 C 7.492188 20.03125 6.96875 19.238281 6.59375 18.320312 C 6.21875 17.402344 6.03125 16.402344 6.03125 15.320312 L 6.03125 15.277344 C 6.03125 14.234375 6.222656 13.261719 6.605469 12.351562 C 6.988281 11.441406 7.519531 10.640625 8.199219 9.953125 C 8.878906 9.265625 9.6875 8.722656 10.625 8.328125 C 11.566406 7.929688 12.582031 7.734375 13.679688 7.734375 Z M 13.679688 7.734375 "/>
<path style=" stroke:none;fill-rule:nonzero;fill:rgb(100%,100%,100%);fill-opacity:1;" d="M 23.226562 12.859375 C 23.226562 12.414062 23.378906 12.039062 23.683594 11.734375 C 23.988281 11.429688 24.367188 11.277344 24.808594 11.277344 C 25.253906 11.277344 25.628906 11.429688 25.933594 11.734375 C 26.242188 12.039062 26.394531 12.414062 26.394531 12.859375 L 26.394531 17.632812 C 26.394531 19.148438 27.03125 19.90625 28.3125 19.90625 C 28.9375 19.90625 29.421875 19.714844 29.769531 19.332031 C 30.117188 18.949219 30.292969 18.382812 30.292969 17.632812 L 30.292969 12.859375 C 30.292969 12.414062 30.445312 12.039062 30.75 11.734375 C 31.054688 11.429688 31.429688 11.277344 31.875 11.277344 C 32.320312 11.277344 32.695312 11.429688 33 11.734375 C 33.304688 12.039062 33.460938 12.414062 33.460938 12.859375 L 33.460938 21.113281 C 33.460938 21.558594 33.304688 21.933594 33 22.238281 C 32.695312 22.546875 32.320312 22.699219 31.875 22.699219 C 31.429688 22.699219 31.054688 22.546875 30.75 22.238281 C 30.445312 21.933594 30.292969 21.558594 30.292969 21.113281 L 30.292969 20.988281 C 29.929688 21.460938 29.492188 21.878906 28.976562 22.238281 C 28.464844 22.601562 27.8125 22.78125 27.019531 22.78125 C 25.796875 22.78125 24.859375 22.414062 24.203125 21.6875 C 23.550781 20.957031 23.226562 19.9375 23.226562 18.632812 Z M 23.226562 12.859375 "/>
<path style=" stroke:none;fill-rule:nonzero;fill:rgb(100%,19.215687%,19.215687%);fill-opacity:1;" d="M 10.152344 29.789062 C 10.253906 29.789062 10.339844 29.804688 10.414062 29.832031 C 10.484375 29.863281 10.546875 29.894531 10.601562 29.929688 C 10.871094 30.128906 11.15625 30.285156 11.457031 30.398438 C 11.753906 30.515625 12.078125 30.570312 12.421875 30.570312 C 12.75 30.570312 13 30.511719 13.179688 30.394531 C 13.359375 30.273438 13.449219 30.109375 13.449219 29.898438 L 13.449219 29.878906 C 13.449219 29.777344 13.433594 29.6875 13.394531 29.609375 C 13.359375 29.53125 13.285156 29.457031 13.179688 29.386719 C 13.078125 29.3125 12.929688 29.246094 12.742188 29.183594 C 12.558594 29.117188 12.316406 29.046875 12.015625 28.972656 C 11.65625 28.886719 11.332031 28.789062 11.039062 28.683594 C 10.746094 28.578125 10.5 28.445312 10.296875 28.28125 C 10.089844 28.117188 9.933594 27.917969 9.820312 27.679688 C 9.710938 27.441406 9.65625 27.148438 9.65625 26.792969 L 9.65625 26.773438 C 9.65625 26.449219 9.714844 26.15625 9.835938 25.894531 C 9.960938 25.632812 10.132812 25.40625 10.351562 25.214844 C 10.570312 25.027344 10.835938 24.882812 11.140625 24.78125 C 11.445312 24.675781 11.78125 24.625 12.148438 24.625 C 13.011719 24.625 13.761719 24.835938 14.40625 25.257812 C 14.496094 25.3125 14.574219 25.390625 14.648438 25.492188 C 14.71875 25.59375 14.753906 25.722656 14.753906 25.878906 C 14.753906 26.082031 14.683594 26.253906 14.539062 26.390625 C 14.398438 26.53125 14.226562 26.601562 14.019531 26.601562 C 13.878906 26.601562 13.746094 26.5625 13.625 26.488281 C 13.109375 26.171875 12.609375 26.011719 12.128906 26.011719 C 11.820312 26.011719 11.59375 26.070312 11.441406 26.1875 C 11.289062 26.308594 11.210938 26.457031 11.210938 26.632812 L 11.210938 26.652344 C 11.210938 26.773438 11.234375 26.875 11.277344 26.957031 C 11.320312 27.039062 11.402344 27.113281 11.515625 27.175781 C 11.632812 27.242188 11.789062 27.304688 11.988281 27.371094 C 12.191406 27.433594 12.441406 27.507812 12.75 27.589844 C 13.109375 27.683594 13.429688 27.789062 13.710938 27.910156 C 13.992188 28.027344 14.230469 28.171875 14.421875 28.335938 C 14.617188 28.503906 14.761719 28.699219 14.859375 28.921875 C 14.960938 29.144531 15.007812 29.414062 15.007812 29.726562 L 15.007812 29.746094 C 15.007812 30.101562 14.945312 30.414062 14.816406 30.6875 C 14.6875 30.964844 14.507812 31.195312 14.273438 31.378906 C 14.042969 31.566406 13.769531 31.710938 13.449219 31.808594 C 13.132812 31.90625 12.78125 31.957031 12.390625 31.957031 C 11.925781 31.957031 11.460938 31.882812 11.007812 31.742188 C 10.554688 31.601562 10.121094 31.386719 9.714844 31.101562 C 9.628906 31.039062 9.554688 30.957031 9.5 30.851562 C 9.449219 30.746094 9.421875 30.632812 9.421875 30.511719 C 9.421875 30.308594 9.492188 30.136719 9.632812 29.996094 C 9.777344 29.859375 9.949219 29.789062 10.152344 29.789062 Z M 10.152344 29.789062 "/>
<path style=" stroke:none;fill-rule:nonzero;fill:rgb(100%,100%,100%);fill-opacity:1;" d="M 19.214844 26.296875 C 19.632812 26.296875 20.023438 26.367188 20.382812 26.515625 C 20.746094 26.660156 21.054688 26.859375 21.316406 27.113281 C 21.578125 27.371094 21.78125 27.667969 21.929688 28.011719 C 22.082031 28.355469 22.15625 28.722656 22.15625 29.117188 L 22.15625 29.136719 C 22.15625 29.53125 22.082031 29.898438 21.929688 30.242188 C 21.78125 30.582031 21.574219 30.882812 21.3125 31.140625 C 21.046875 31.398438 20.734375 31.601562 20.375 31.753906 C 20.015625 31.902344 19.621094 31.976562 19.191406 31.976562 C 18.773438 31.976562 18.382812 31.902344 18.023438 31.757812 C 17.664062 31.609375 17.351562 31.410156 17.089844 31.15625 C 16.828125 30.902344 16.625 30.605469 16.476562 30.261719 C 16.324219 29.917969 16.25 29.550781 16.25 29.15625 L 16.25 29.136719 C 16.25 28.742188 16.324219 28.375 16.476562 28.03125 C 16.625 27.6875 16.832031 27.386719 17.097656 27.128906 C 17.359375 26.871094 17.671875 26.667969 18.03125 26.519531 C 18.390625 26.371094 18.785156 26.296875 19.214844 26.296875 Z M 19.214844 30.640625 C 19.4375 30.640625 19.636719 30.605469 19.808594 30.527344 C 19.980469 30.449219 20.128906 30.339844 20.25 30.207031 C 20.375 30.070312 20.46875 29.910156 20.53125 29.730469 C 20.597656 29.550781 20.628906 29.359375 20.628906 29.15625 L 20.628906 29.136719 C 20.628906 28.933594 20.59375 28.742188 20.527344 28.5625 C 20.460938 28.382812 20.359375 28.222656 20.230469 28.082031 C 20.101562 27.945312 19.953125 27.832031 19.777344 27.75 C 19.605469 27.671875 19.410156 27.628906 19.191406 27.628906 C 18.96875 27.628906 18.769531 27.667969 18.597656 27.746094 C 18.425781 27.824219 18.277344 27.929688 18.15625 28.066406 C 18.03125 28.203125 17.9375 28.359375 17.875 28.539062 C 17.8125 28.71875 17.777344 28.910156 17.777344 29.117188 L 17.777344 29.136719 C 17.777344 29.339844 17.8125 29.53125 17.878906 29.710938 C 17.949219 29.890625 18.046875 30.050781 18.175781 30.191406 C 18.304688 30.328125 18.457031 30.4375 18.632812 30.519531 C 18.808594 30.601562 19.003906 30.640625 19.214844 30.640625 Z M 19.214844 30.640625 "/>
<path style=" stroke:none;fill-rule:nonzero;fill:rgb(100%,100%,100%);fill-opacity:1;" d="M 24.355469 26.335938 C 24.570312 26.335938 24.753906 26.410156 24.90625 26.5625 C 25.054688 26.710938 25.128906 26.894531 25.128906 27.109375 L 25.128906 27.171875 C 25.304688 26.941406 25.519531 26.738281 25.769531 26.5625 C 26.019531 26.382812 26.339844 26.296875 26.726562 26.296875 C 27.324219 26.296875 27.78125 26.472656 28.101562 26.832031 C 28.421875 27.1875 28.578125 27.683594 28.578125 28.320312 L 28.578125 31.140625 C 28.578125 31.359375 28.503906 31.542969 28.355469 31.691406 C 28.207031 31.839844 28.023438 31.914062 27.804688 31.914062 C 27.589844 31.914062 27.40625 31.839844 27.253906 31.691406 C 27.105469 31.542969 27.03125 31.359375 27.03125 31.140625 L 27.03125 28.808594 C 27.03125 28.070312 26.71875 27.699219 26.09375 27.699219 C 25.789062 27.699219 25.550781 27.792969 25.382812 27.980469 C 25.214844 28.167969 25.128906 28.445312 25.128906 28.808594 L 25.128906 31.140625 C 25.128906 31.359375 25.054688 31.542969 24.90625 31.691406 C 24.753906 31.839844 24.570312 31.914062 24.355469 31.914062 C 24.136719 31.914062 23.953125 31.839844 23.804688 31.691406 C 23.65625 31.542969 23.582031 31.359375 23.582031 31.140625 L 23.582031 27.109375 C 23.582031 26.894531 23.65625 26.710938 23.804688 26.5625 C 23.953125 26.410156 24.136719 26.335938 24.355469 26.335938 Z M 24.355469 26.335938 "/>
</g>
</svg>
